<svg width="245" height="43" viewBox="0 0 245 43" fill="none" xmlns="http://www.w3.org/2000/svg">
<g clip-path="url(#clip0_548_1062)">
<path d="M56.5493 31.7418C58.9868 31.7418 60.6733 31.3751 61.6073 30.6401C62.5412 29.905 63.0074 28.8297 63.0074 27.4093C63.0074 26.2439 62.651 25.3255 61.9366 24.6542C61.2222 23.9828 60.1276 23.5462 58.6495 23.3426L52.6575 22.5066C48.1962 21.899 45.9655 19.6317 45.9655 15.7048C45.9655 13.4764 46.8215 11.6707 48.5335 10.2892C50.2455 8.90929 52.761 8.21777 56.0815 8.21777C59.4021 8.21777 62.1323 8.95902 63.8825 10.4415C65.6327 11.924 66.6 13.8805 66.7814 16.3124H62.8913C62.6828 14.7165 62.0225 13.4749 60.9072 12.5875C59.7919 11.7018 58.1706 11.2573 56.0433 11.2573C53.9161 11.2573 52.508 11.6443 51.5104 12.4166C50.5112 13.1889 50.0116 14.2472 50.0116 15.5898C50.0116 16.5533 50.2964 17.3443 50.8676 17.9643C51.4372 18.5859 52.3075 18.9853 53.4754 19.1609L59.8173 20.073C62.1769 20.4025 63.9732 21.1189 65.2063 22.2206C66.4378 23.3224 67.0551 24.8872 67.0551 26.9136C67.0551 32.1583 63.5532 34.7798 56.5493 34.7798C52.6066 34.7798 49.7268 33.9252 47.9114 32.2142C46.096 30.5033 45.1875 28.3324 45.1875 25.6969H49.0777C49.2065 29.7248 51.6981 31.7387 56.5477 31.7387L56.5493 31.7418Z" fill="black"/>
<path d="M77.4059 12.0579H68.418V8.90332H90.3635V12.0579H81.4138V34.1756H77.4059V12.0579Z" fill="black"/>
<path d="M109.392 34.1736L107.097 28.1691H94.5685L92.2726 34.1736H88.2266L97.8366 8.90137H103.867L113.477 34.1736H109.391H109.392ZM105.891 25.0145L100.833 11.6752L95.7746 25.0145H105.891Z" fill="black"/>
<path d="M116.586 8.90332H129.776C132.344 8.90332 134.237 9.47363 135.456 10.6142C136.675 11.7549 137.284 13.2498 137.284 15.099C137.284 16.8224 136.791 18.1961 135.806 19.2217C134.82 20.2473 133.614 20.8751 132.188 21.1036C133.796 21.332 135.106 21.9722 136.118 23.0227C137.13 24.0748 137.636 25.5122 137.636 27.3366C137.636 29.4391 136.942 31.1049 135.555 32.3341C134.167 33.5633 132.15 34.1771 129.504 34.1771H116.586V8.90332ZM128.336 19.6584C129.97 19.6584 131.17 19.3414 131.935 18.7089C132.7 18.0764 133.082 17.1005 133.082 15.7828C133.082 14.465 132.77 13.5466 132.148 12.9514C131.526 12.3562 130.423 12.0579 128.84 12.0579H120.592V19.6584H128.336ZM129.036 31.021C130.54 31.021 131.649 30.6356 132.363 29.8618C133.076 29.0894 133.434 28.0949 133.434 26.8781C133.434 23.9893 131.734 22.5457 128.336 22.5457H120.592V31.0195H129.036V31.021Z" fill="black"/>
<path d="M141.527 31.021H146.819V12.0579H141.527V8.90332H156.119V12.0579H150.827V31.021H156.119V34.1756H141.527V31.021Z" fill="black"/>
<path d="M160.984 8.90332H164.992V31.021H178.104V34.1756H160.984V8.90332Z" fill="black"/>
<path d="M180.828 31.021H186.12V12.0579H180.828V8.90332H195.42V12.0579H190.128V31.021H195.42V34.1756H180.828V31.021Z" fill="black"/>
<path d="M207.129 12.0579H198.141V8.90332H220.086V12.0579H211.136V34.1756H207.129V12.0579Z" fill="black"/>
<path d="M225.858 8.90332L231.11 18.67L233.134 22.3949C233.834 21.2543 234.534 20.0142 235.234 18.67L240.526 8.90332H245L235.156 25.8152V34.1756H231.149V25.8152L221.305 8.90332H225.857H225.858Z" fill="black"/>
<path d="M0 33.438L17.0896 23.8438L34.1792 33.4628L17.0896 42.9996L0 33.438Z" fill="#0A0A0A"/>
<path d="M0 9.59375L17.0896 19.132V38.1309L0 28.7729V9.59375Z" fill="#3E7CB1"/>
<path d="M34.1795 9.61914L17.0898 19.1559V38.1563L34.1795 28.7983V9.61914Z" fill="#30C5FF"/>
<path d="M0 9.59423L17.0896 0L34.1792 9.6191L17.0896 19.1558L0 9.59423Z" fill="#41EEF9"/>
</g>
<defs>
<clipPath id="clip0_548_1062">
<rect width="245" height="43" fill="white"/>
</clipPath>
</defs>
</svg>
