<svg xmlns="http://www.w3.org/2000/svg" width="31" height="31" viewBox="0 0 31 31" fill="none">
  <path d="M26.6211 6.30871V25.4999C26.6211 25.9387 26.4468 26.3595 26.1365 26.6697C25.8263 26.98 25.4055 27.1543 24.9667 27.1543H5.77551C5.33673 27.1543 4.91592 26.98 4.60566 26.6697C4.2954 26.3595 4.12109 25.9387 4.12109 25.4999V6.30871C4.12109 5.86993 4.2954 5.44913 4.60566 5.13886C4.91592 4.8286 5.33673 4.6543 5.77551 4.6543H24.9667C25.4055 4.6543 25.8263 4.8286 26.1365 5.13886C26.4468 5.44913 26.6211 5.86993 26.6211 6.30871ZM10.7387 13.2572H7.42992V23.8455H10.7387V13.2572ZM11.0365 9.61753C11.0383 9.36725 10.9907 9.11907 10.8965 8.88717C10.8024 8.65527 10.6634 8.44419 10.4877 8.26598C10.3119 8.08777 10.1028 7.94593 9.87224 7.84854C9.64167 7.75116 9.39417 7.70015 9.14389 7.69841H9.08433C8.57535 7.69841 8.08721 7.90061 7.72731 8.26051C7.3674 8.62042 7.16521 9.10855 7.16521 9.61753C7.16521 10.1265 7.3674 10.6146 7.72731 10.9746C8.08721 11.3345 8.57535 11.5366 9.08433 11.5366C9.33463 11.5428 9.5837 11.4996 9.81729 11.4095C10.0509 11.3193 10.2644 11.184 10.4457 11.0114C10.627 10.8387 10.7725 10.6319 10.8739 10.403C10.9753 10.1741 11.0305 9.9274 11.0365 9.67709V9.61753ZM23.3123 17.4131C23.3123 14.23 21.2873 12.9925 19.2755 12.9925C18.6168 12.9595 17.961 13.0998 17.3734 13.3994C16.7859 13.699 16.2871 14.1474 15.927 14.6999H15.8343V13.2572H12.724V23.8455H16.0329V18.2139C15.985 17.6371 16.1667 17.0647 16.5384 16.6211C16.9102 16.1775 17.4419 15.8985 18.0182 15.8447H18.1439C19.1961 15.8447 19.977 16.5065 19.977 18.1741V23.8455H23.2858L23.3123 17.4131Z" fill="white"/>
</svg>