<svg width="24" height="24" viewBox="0 0 24 24" fill="none" xmlns="http://www.w3.org/2000/svg">
<g id="Icon/X">
<path id="Vector" d="M13.0597 11.9997L19.2847 5.7841C19.4043 5.63838 19.4654 5.45338 19.4562 5.26509C19.4469 5.0768 19.368 4.89869 19.2347 4.76539C19.1014 4.63208 18.9232 4.55313 18.7349 4.54388C18.5467 4.53464 18.3617 4.59575 18.2159 4.71535L12.0003 10.9404L5.78469 4.71535C5.63897 4.59575 5.45397 4.53464 5.26568 4.54388C5.07739 4.55313 4.89927 4.63208 4.76597 4.76539C4.63267 4.89869 4.55372 5.0768 4.54447 5.26509C4.53522 5.45338 4.59634 5.63838 4.71594 5.7841L10.9409 11.9997L4.71594 18.2154C4.5751 18.3575 4.49609 18.5496 4.49609 18.7497C4.49609 18.9499 4.5751 19.1419 4.71594 19.2841C4.85929 19.4227 5.0509 19.5002 5.25031 19.5002C5.44972 19.5002 5.64133 19.4227 5.78469 19.2841L12.0003 13.0591L18.2159 19.2841C18.3593 19.4227 18.5509 19.5002 18.7503 19.5002C18.9497 19.5002 19.1413 19.4227 19.2847 19.2841C19.4255 19.1419 19.5045 18.9499 19.5045 18.7497C19.5045 18.5496 19.4255 18.3575 19.2847 18.2154L13.0597 11.9997Z" fill="white"/>
</g>
</svg>
