<svg width="357" height="289" viewBox="0 0 357 289" fill="none" xmlns="http://www.w3.org/2000/svg">
<path d="M329.538 41.2866H183.134L135.42 5.50573C130.69 1.8868 124.893 -0.050061 118.943 0.000983675H27.4615C20.1783 0.000983675 13.1933 2.90079 8.0433 8.06249C2.89326 13.2242 0 20.225 0 27.5247V261.476C0 268.776 2.89326 275.777 8.0433 280.939C13.1933 286.1 20.1783 289 27.4615 289H331.083C337.943 288.955 344.509 286.204 349.359 281.342C354.21 276.481 356.955 269.9 357 263.024V68.8103C357 61.5105 354.107 54.5098 348.957 49.3481C343.807 44.1864 336.822 41.2866 329.538 41.2866Z" fill="#F6EBDB"/>
</svg>
