<svg width="150" height="150" viewBox="0 0 150 150" fill="none" xmlns="http://www.w3.org/2000/svg">
<g id="Lack of scalability" clip-path="url(#clip0_728_944)">
<g id="Group 103">
<circle id="Ellipse 38" cx="75" cy="75" r="75" fill="#2D3353"/>
</g>
<path id="Vector 1" d="M67.1604 76.9595C67.1604 68.1706 67.0457 59.3723 67.1604 50.5841C67.2681 42.3301 71.4605 42.5163 78.5941 42.5163C88.7993 42.5163 93.5034 47.9091 96.1605 57.8244C98.6235 67.0152 100.218 80.7418 95.225 89.3714C89.2074 99.7717 68.2964 109.898 63.4184 93.8191C58.2643 76.8298 68.6614 63.6864 85.4544 61.3411C97.7004 59.6308 109.976 64.7614 107.178 79.235C105.893 85.8849 99.528 91.4402 93.354 93.7156C88.6065 95.4653 79.8188 97.5919 75.5798 93.7156C67.2702 86.1173 67.6889 69.7975 75.3719 61.8583C79.8923 57.187 85.0888 56.4797 91.2752 56.4797C98.0782 56.4797 100.518 60.1427 104.58 64.8578C112.506 74.0597 96.0191 81.6413 89.3002 83.062C82.2975 84.5428 69.4074 85.033 62.6908 82.338C58.4707 80.6447 51.1469 77.4611 49.3861 73.029C38.9025 46.6418 77.592 30.4744 91.2752 53.8939C97.1114 63.883 95.8833 72.0567 90.5476 81.614C85.6763 90.3393 74.9844 91.8538 66.017 91.8538C57.2411 91.8538 53.7481 79.8627 57.2858 72.8222C61.4312 64.5719 66.6404 60.8618 76.0995 62.1168C88.3191 63.7381 93.354 78.5058 93.354 88.6474C93.354 100.004 84.3261 103.025 74.2285 103.025C65.9994 103.025 60.157 102.58 61.5994 93.2502C63.131 83.3434 73.1852 78.4089 81.1927 75.5631C93.5605 71.1677 98.4079 84.4366 101.306 93.6639C104.471 103.742 94.0047 108.847 85.2984 109.489C74.9604 110.251 56.7454 106.791 55.103 93.7156C53.5747 81.5493 54.2507 61.1109 69.1353 56.9452C78.8682 54.2212 90.6883 54.2202 97.5637 62.5823C104.275 70.7446 105.779 89.0483 98.4992 96.9221C87.119 109.231 69.7184 118.311 52.4524 111.868C39.5397 107.05 39.8716 86.4737 42.3699 75.9769C46.6837 57.8525 64.1496 36 84.4669 36C91.3074 36 91.2725 37.8548 95.6927 42.93C99.4184 47.2077 103.885 51.6358 106.347 56.8418C115.444 76.0784 99.8465 102.104 79.3217 105.817" stroke="#F97068" stroke-width="2" stroke-linecap="round"/>
<rect id="Rectangle 69" x="92" y="102" width="12" height="12" rx="6" fill="#C05F62"/>
<rect id="Rectangle 68" x="35" y="84" width="12" height="12" rx="6" fill="#C05F62"/>
</g>
<defs>
<clipPath id="clip0_728_944">
<rect width="150" height="150" fill="white"/>
</clipPath>
</defs>
</svg>
