<svg width="151" height="150" viewBox="0 0 151 150" fill="none" xmlns="http://www.w3.org/2000/svg">
<g id="Frame 149">
<circle id="Ellipse 35" cx="75.5" cy="75" r="75" fill="#30C5FF"/>
<rect id="Rectangle 70" x="50.5" y="24" width="69" height="87" rx="4" fill="white"/>
<g id="Group 107">
<path id="Union" fill-rule="evenodd" clip-rule="evenodd" d="M84.8498 94.8725C102.764 94.8725 117.286 80.3503 117.286 62.4362C117.286 44.5222 102.764 30 84.8498 30C66.9358 30 52.4136 44.5222 52.4136 62.4362C52.4136 69.9757 54.9859 76.9143 59.3008 82.4224C58.3909 82.4146 57.476 82.7385 56.7529 83.4025L25.2414 112.339C23.7277 113.729 23.6274 116.083 25.0174 117.596C26.4074 119.11 28.7612 119.21 30.2749 117.82L61.7865 88.884C62.519 88.2113 62.9205 87.3129 62.9823 86.3931C68.7492 91.66 76.4243 94.8725 84.8498 94.8725Z" fill="#3F3F3F"/>
<circle id="Ellipse 35_2" cx="85.2802" cy="62.4365" r="28.2509" fill="white"/>
<circle id="Ellipse 36" cx="85.281" cy="62.4362" r="23.0193" fill="#F4F4F4"/>
<ellipse id="Ellipse 37" cx="85.2812" cy="61.9128" rx="18.8339" ry="18.3108" fill="#BAECFF"/>
<ellipse id="Ellipse 38" cx="85.2814" cy="61.913" rx="14.6486" ry="15.1718" fill="#75D8FF"/>
</g>
</g>
</svg>
