<svg width="50" height="50" viewBox="0 0 50 50" fill="none" xmlns="http://www.w3.org/2000/svg">
<rect width="50" height="50" rx="25" fill="#D6F3FF"/>
<path d="M37.1762 34.844C35.4269 31.8305 32.6269 29.5688 29.3129 28.4924C30.9014 27.5478 32.1358 26.1078 32.8265 24.3937C33.5172 22.6795 33.626 20.786 33.1362 19.004C32.6464 17.222 31.5851 15.6501 30.1153 14.5298C28.6455 13.4095 26.8485 12.8027 25.0004 12.8027C23.1524 12.8027 21.3554 13.4095 19.8856 14.5298C18.4158 15.6501 17.3545 17.222 16.8647 19.004C16.3749 20.786 16.4837 22.6795 17.1744 24.3937C17.8651 26.1078 19.0995 27.5478 20.6879 28.4924C17.374 29.5688 14.574 31.8305 12.8247 34.844C12.7388 34.9852 12.6934 35.1474 12.6934 35.3127C12.6934 35.478 12.7388 35.6402 12.8247 35.7815C12.9048 35.9251 13.0222 36.0445 13.1645 36.127C13.3068 36.2095 13.4688 36.2521 13.6333 36.2502H36.3676C36.5321 36.2521 36.6941 36.2095 36.8364 36.127C36.9787 36.0445 37.0961 35.9251 37.1762 35.7815C37.2621 35.6402 37.3075 35.478 37.3075 35.3127C37.3075 35.1474 37.2621 34.9852 37.1762 34.844Z" fill="#3E7CB1"/>
</svg>
