<svg width="30" height="30" viewBox="0 0 30 30" fill="none" xmlns="http://www.w3.org/2000/svg">
<g id="Icon/ArrowRight">
<path id="Vector" d="M25.9805 15.6679L17.543 24.1054C17.363 24.2774 17.1239 24.3739 16.875 24.3749C16.7506 24.3744 16.6274 24.3505 16.5117 24.3046C16.3411 24.2329 16.1955 24.1123 16.0933 23.9579C15.9911 23.8036 15.9369 23.6225 15.9375 23.4374V15.9374H4.6875C4.43886 15.9374 4.2004 15.8386 4.02459 15.6628C3.84877 15.487 3.75 15.2485 3.75 14.9999C3.75 14.7513 3.84877 14.5128 4.02459 14.337C4.2004 14.1612 4.43886 14.0624 4.6875 14.0624H15.9375V6.56241C15.9369 6.37732 15.9911 6.19621 16.0933 6.04189C16.1955 5.88756 16.3411 5.76694 16.5117 5.69522C16.6849 5.62768 16.8736 5.61054 17.0561 5.6458C17.2386 5.68105 17.4074 5.76726 17.543 5.89444L25.9805 14.3319C26.1565 14.5097 26.2553 14.7497 26.2553 14.9999C26.2553 15.2501 26.1565 15.4901 25.9805 15.6679Z" fill="#0A0A0A"/>
</g>
</svg>
